HIERARCHY
ROOT SpineBase
{
  OFFSET 0.000000 0.000000 0.000000
  CHANNELS 6 Xposition Yposition Zposition Zrotation Xrotation Yrotation
  JOINT SpineMid
  {
    OFFSET -0.000000 28.489372 0.000000
    CHANNELS 3 Zrotation Xrotation Yrotation
    JOINT SpineShoulder
    {
      OFFSET 0.001476 21.202957 -0.616571
      CHANNELS 3 Zrotation Xrotation Yrotation
      JOINT Neck
      {
        OFFSET -0.001319 7.027578 -0.498966
        CHANNELS 3 Zrotation Xrotation Yrotation
        JOINT Head
        {
          OFFSET 1.251814 14.475680 -0.658080
          CHANNELS 3 Zrotation Xrotation Yrotation
          End Site
          {
            OFFSET 0 0 0
          }
        }
      }
      JOINT ShoulderLeft
      {
        OFFSET -16.362840 -2.522584 -3.928449
        CHANNELS 3 Zrotation Xrotation Yrotation
        JOINT ElbowLeft
        {
          OFFSET -4.274653 -25.025200 -2.036343
          CHANNELS 3 Zrotation Xrotation Yrotation
          JOINT WristLeft
          {
            OFFSET 1.863742 -22.148280 -7.593010
            CHANNELS 3 Zrotation Xrotation Yrotation
            JOINT HandLeft
            {
              OFFSET 2.372083 -4.434798 -0.714198
              CHANNELS 3 Zrotation Xrotation Yrotation
              JOINT HandTipLeft
              {
                OFFSET 0.097002 -7.253949 -4.049902
                CHANNELS 3 Zrotation Xrotation Yrotation
                End Site
                {
                  OFFSET 0 0 0
                }
              }
              JOINT ThumbLeft
              {
                OFFSET 3.968501 -1.926893 -2.096452
                CHANNELS 3 Zrotation Xrotation Yrotation
                End Site
                {
                  OFFSET 0 0 0
                }
              }
            }
          }
        }
      }
      JOINT ShoulderRight
      {
        OFFSET 16.370697 -3.091253 1.326942
        CHANNELS 3 Zrotation Xrotation Yrotation
        JOINT ElbowRight
        {
          OFFSET 1.449973 -25.417613 0.576991
          CHANNELS 3 Zrotation Xrotation Yrotation
          JOINT WristRight
          {
            OFFSET -0.229480 -24.688255 -5.177842
            CHANNELS 3 Zrotation Xrotation Yrotation
            JOINT HandRight
            {
              OFFSET -0.768850 -5.704367 -0.469065
              CHANNELS 3 Zrotation Xrotation Yrotation
              JOINT HandTipRight
              {
                OFFSET 0.253942 -7.923407 -2.223939
                CHANNELS 3 Zrotation Xrotation Yrotation
                End Site
                {
                  OFFSET 0 0 0
                }
              }
              JOINT ThumbRight
              {
                OFFSET 2.958638 1.112789 -1.545021
                CHANNELS 3 Zrotation Xrotation Yrotation
                End Site
                {
                  OFFSET 0 0 0
                }
              }
            }
          }
        }
      }
    }
  }
  JOINT HipLeft
  {
    OFFSET -7.212878 0.921779 -4.269401
    CHANNELS 3 Zrotation Xrotation Yrotation
    JOINT KneeLeft
    {
      OFFSET -8.956023 -25.990740 -4.784438
      CHANNELS 3 Zrotation Xrotation Yrotation
      JOINT AnkleLeft
      {
        OFFSET -4.578431 -32.670133 5.699268
        CHANNELS 3 Zrotation Xrotation Yrotation
        JOINT FootLeft
        {
          OFFSET -2.092362 -7.532557 -5.873265
          CHANNELS 3 Zrotation Xrotation Yrotation
          End Site
          {
            OFFSET 0 0 0
          }
        }
      }
    }
  }
  JOINT HipRight
  {
    OFFSET 7.267570 0.580788 -2.467771
    CHANNELS 3 Zrotation Xrotation Yrotation
    JOINT KneeRight
    {
      OFFSET -0.634540 -27.405489 7.994239
      CHANNELS 3 Zrotation Xrotation Yrotation
      JOINT AnkleRight
      {
        OFFSET -1.868076 -33.024453 10.324892
        CHANNELS 3 Zrotation Xrotation Yrotation
        JOINT FootRight
        {
          OFFSET 4.354362 -7.285193 -2.182713
          CHANNELS 3 Zrotation Xrotation Yrotation
          End Site
          {
            OFFSET 0 0 0
          }
        }
      }
    }
  }
}
MOTION
Frames: 11
Frame Time: 0.033333
7.143166 65.122288 377.528385 -29.962489 12.743266 -8.154076 -1.556073 1.052568 10.864320 0.327833 -0.458959 -1.400678 -6.339938 4.881848 -0.281462 0.000000 0.000000 0.000000 -58.923251 17.378314 11.879846 -135.492943 -48.242421 105.092387 79.951730 36.000808 -100.836661 -148.709005 -57.537743 -5.166147 0.000000 0.000000 0.000000 0.000000 0.000000 0.000000 -46.538500 41.833316 35.163005 -56.174195 9.919464 -13.709763 5.098793 -6.178555 -33.516928 11.214821 -4.072337 31.711038 0.000000 0.000000 0.000000 0.000000 0.000000 0.000000 26.662942 -6.515092 13.313939 -3.382178 7.815435 -2.612546 19.535368 26.253279 -14.680593 0.000000 0.000000 0.000000 33.486722 8.480769 14.756065 -12.846693 -16.433564 -5.815720 -16.589905 39.422598 39.510419 0.000000 0.000000 0.000000
7.082187 64.641183 377.623798 -30.039872 12.985036 -3.983796 -1.394918 1.201062 6.785966 0.392720 -0.433247 -1.377951 -6.326472 4.913126 -0.325360 0.000000 0.000000 0.000000 -55.736370 19.445597 12.504152 -119.611549 -60.629205 160.679841 140.690557 -41.456562 -97.967820 171.030633 -2.818247 -17.045209 0.000000 0.000000 0.000000 0.000000 0.000000 0.000000 -46.586091 42.022065 35.230380 -55.256257 8.819241 -15.093606 10.652516 -3.210820 -25.087815 9.440955 -9.328505 25.837768 0.000000 0.000000 0.000000 0.000000 0.000000 0.000000 26.158469 -6.972020 9.151748 -3.972346 6.804862 -2.309302 19.827698 25.706120 -14.321327 0.000000 0.000000 0.000000 34.575154 3.846488 11.583244 -12.564596 -14.140693 -5.361727 -19.763347 43.427870 44.724009 0.000000 0.000000 0.000000
7.039380 64.182487 377.727309 -29.929254 13.134366 -0.771531 -1.075867 1.244619 3.623041 0.516468 -0.346599 -1.309591 -6.735937 5.329822 -0.343977 0.000000 0.000000 0.000000 -52.798920 21.673305 13.072770 -71.610803 -71.308133 -112.252049 -62.879891 14.209955 170.350358 -46.932665 -34.060464 -110.701824 0.000000 0.000000 0.000000 0.000000 0.000000 0.000000 -46.637170 42.127707 34.944409 -54.431326 8.245819 -15.341835 16.655268 -1.087813 -18.209015 3.308081 -14.976564 18.656695 0.000000 0.000000 0.000000 0.000000 0.000000 0.000000 25.579662 -6.856326 5.757229 -4.443509 5.632991 -2.007354 19.956660 25.260599 -13.921858 0.000000 0.000000 0.000000 34.727271 -0.214441 9.080388 -12.010015 -11.778397 -4.858827 -23.803746 47.274483 50.963529 0.000000 0.000000 0.000000
7.080993 63.955019 377.844857 -29.873496 13.305482 0.213986 -0.759525 1.182391 2.692525 0.564548 -0.153281 -1.230032 -6.412236 5.819627 -0.260717 0.000000 0.000000 0.000000 -49.945431 23.510382 13.267274 -38.860469 -67.189616 -61.809547 -49.752901 9.512404 70.907252 47.616981 -19.142197 9.482701 0.000000 0.000000 0.000000 0.000000 0.000000 0.000000 -46.149430 41.974762 34.173986 -53.659937 7.975882 -14.824723 21.177507 0.568081 -13.460258 -4.680971 -18.017653 12.907418 0.000000 0.000000 0.000000 0.000000 0.000000 0.000000 25.412853 -6.347595 4.584709 -4.899653 4.975544 -1.848728 20.097127 24.869801 -13.542475 0.000000 0.000000 0.000000 34.338551 -2.501773 8.248079 -11.269909 -9.846056 -4.406595 -24.071138 47.219813 51.308376 0.000000 0.000000 0.000000
7.089133 63.766634 377.843460 -29.656306 13.514896 0.671815 -0.453141 1.058872 2.271526 0.577889 0.130310 -1.128381 -5.971529 6.252476 -0.203171 0.000000 0.000000 0.000000 -47.898624 24.601479 13.012932 -35.916325 -63.674361 -51.865373 -42.326647 12.886522 32.906671 38.484946 33.466457 49.308493 0.000000 0.000000 0.000000 0.000000 0.000000 0.000000 -46.468770 42.019499 33.866347 -52.253946 7.428079 -14.613666 22.807539 0.981476 -11.789701 -10.151339 -17.724449 11.145609 0.000000 0.000000 0.000000 0.000000 0.000000 0.000000 25.103799 -5.954676 3.965043 -5.240785 4.458852 -1.758094 20.210311 24.611009 -13.216636 0.000000 0.000000 0.000000 33.817933 -4.648250 7.845550 -10.785903 -7.606287 -4.068815 -22.288750 44.830162 48.451553 0.000000 0.000000 0.000000
7.060050 63.660319 377.717912 -29.268980 13.706604 0.052789 -0.113409 0.830846 2.887340 0.495439 0.497653 -1.019636 -5.457966 6.850826 -0.109566 0.000000 0.000000 0.000000 -46.654433 25.356985 12.690229 -39.277147 -65.744612 -56.496342 -31.096940 12.192702 -7.120599 -25.941743 53.969634 118.331841 0.000000 0.000000 0.000000 0.000000 0.000000 0.000000 -47.751017 42.395055 34.265173 -50.178742 7.293527 -13.818427 21.644058 -4.217972 -16.059845 -11.561885 -13.131224 16.342169 0.000000 0.000000 0.000000 0.000000 0.000000 0.000000 24.737359 -5.626753 4.440799 -5.368880 4.324514 -1.740955 19.808484 24.461721 -12.700622 0.000000 0.000000 0.000000 33.260472 -5.798833 8.307454 -10.787960 -5.673979 -3.969780 -22.329891 43.871739 48.681888 0.000000 0.000000 0.000000
6.960372 63.641507 377.510200 -28.941818 14.032947 -0.658002 0.146853 0.783888 3.674177 0.526649 0.594291 -0.963151 -4.785664 6.327235 -0.244042 0.000000 0.000000 0.000000 -45.836084 25.801579 12.255393 -49.752195 -70.737077 -73.000565 -22.462206 10.810543 -21.008992 -56.153114 40.148600 140.021105 0.000000 0.000000 0.000000 0.000000 0.000000 0.000000 -48.296219 42.501433 34.032198 -48.780930 6.660022 -13.757113 19.667190 -5.509332 -17.996855 -13.321751 -9.592230 20.951593 0.000000 0.000000 0.000000 0.000000 0.000000 0.000000 24.851148 -5.628249 5.148708 -5.732401 4.274661 -1.696464 19.758335 24.429055 -12.653382 0.000000 0.000000 0.000000 32.903149 -6.736824 8.975218 -10.615950 -4.355208 -3.805990 -22.148595 43.436393 48.528431 0.000000 0.000000 0.000000
6.754713 63.794589 377.212039 -28.748661 14.427479 -1.392262 0.412474 0.713743 4.510245 0.553930 0.598156 -0.935883 -3.657499 4.980512 -0.437466 0.000000 0.000000 0.000000 -45.643472 25.852795 11.830201 -83.483881 -77.011204 -119.449877 -21.016108 11.185831 -20.231447 -61.112755 27.257203 136.612625 0.000000 0.000000 0.000000 0.000000 0.000000 0.000000 -48.784472 42.667770 33.946804 -47.892033 5.456631 -14.848638 17.190727 -4.119205 -18.450368 -15.367043 -8.774023 22.521011 0.000000 0.000000 0.000000 0.000000 0.000000 0.000000 25.447927 -6.056464 6.067046 -6.263273 4.552684 -1.671824 19.857028 24.463505 -12.871529 0.000000 0.000000 0.000000 32.986594 -7.207992 9.852384 -10.743066 -3.816459 -3.784202 -21.840474 43.432986 48.308679 0.000000 0.000000 0.000000
6.525072 63.998984 376.900902 -28.579076 14.791915 -1.456174 0.557402 0.634723 4.651428 0.520345 0.555296 -0.939062 -1.852094 2.915506 -0.575431 0.000000 0.000000 0.000000 -45.405446 26.031474 11.608680 -88.186200 -76.999261 -124.756477 -20.276038 13.274240 -16.337802 -60.374190 28.633503 132.915745 0.000000 0.000000 0.000000 0.000000 0.000000 0.000000 -49.469410 42.888583 34.195679 -46.884376 3.618671 -16.616098 13.507759 -2.912857 -19.744886 -10.445820 -5.114860 28.961544 0.000000 0.000000 0.000000 0.000000 0.000000 0.000000 25.961712 -6.734787 6.377325 -6.638290 4.979246 -1.639088 19.803660 24.342803 -13.022403 0.000000 0.000000 0.000000 33.076718 -7.994982 10.174332 -10.766846 -3.327396 -3.720899 -21.704140 43.454487 48.073930 0.000000 0.000000 0.000000
6.312244 64.232816 376.640506 -28.392312 15.027997 -1.153216 0.622161 0.477107 4.358782 0.455492 0.477273 -0.961464 0.115173 1.053225 -0.541690 0.000000 0.000000 0.000000 -45.116877 26.464418 11.701765 -73.426739 -76.769375 -105.626983 -22.579858 12.923666 -13.534536 -52.857644 34.618771 128.401652 0.000000 0.000000 0.000000 0.000000 0.000000 0.000000 -50.237065 43.191698 34.743498 -45.946442 1.600476 -18.509556 10.493865 0.015861 -18.974096 -7.049450 -6.476070 27.879352 0.000000 0.000000 0.000000 0.000000 0.000000 0.000000 26.326425 -7.403520 6.283368 -6.923354 5.313176 -1.598402 19.347867 24.281421 -12.887411 0.000000 0.000000 0.000000 33.159521 -8.631541 10.143818 -10.970638 -3.183929 -3.745189 -22.091584 43.441325 48.295943 0.000000 0.000000 0.000000
6.061882 64.480592 376.393006 -28.282527 15.134429 -0.413387 0.571763 0.275556 3.576928 0.369797 0.345928 -1.009905 2.234691 -0.560170 -0.356323 0.000000 0.000000 0.000000 -44.852823 27.126013 12.145156 -72.091926 -78.251788 -104.494424 -24.363091 13.332510 -8.958895 -49.079431 37.129117 123.228666 0.000000 0.000000 0.000000 0.000000 0.000000 0.000000 -51.423139 43.604099 35.870560 -45.234796 -0.493234 -20.701381 7.538675 1.836046 -18.893193 -0.472581 -5.530706 29.513587 0.000000 0.000000 0.000000 0.000000 0.000000 0.000000 26.615604 -8.028540 5.719011 -7.051352 5.508351 -1.525914 18.647211 24.254722 -12.657518 0.000000 0.000000 0.000000 33.408293 -9.195723 9.767765 -11.380563 -3.364456 -3.851333 -22.775424 43.540123 48.784154 0.000000 0.000000 0.000000
